<svg width="33" height="22" viewBox="0 0 33 22" fill="none" xmlns="http://www.w3.org/2000/svg">
<g clip-path="url(#clip0_1_876)">
<path d="M31.7225 3.60577C31.5388 2.96976 31.1805 2.38992 30.6833 1.924C30.1861 1.45809 29.5673 1.12234 28.8885 0.950213C26.4035 0.315186 16.4021 0.315186 16.4021 0.315186C16.4021 0.315186 6.40026 0.334407 3.91525 0.969435C3.23645 1.14158 2.61763 1.47734 2.1204 1.94327C1.62318 2.40921 1.26489 2.98907 1.08124 3.62511C0.329577 7.76229 0.0379945 14.0664 1.10187 18.0381C1.28555 18.6741 1.64384 19.2539 2.14107 19.7198C2.63829 20.1857 3.25711 20.5215 3.93589 20.6936C6.4209 21.3286 16.4225 21.3286 16.4225 21.3286C16.4225 21.3286 26.424 21.3286 28.9089 20.6936C29.5877 20.5215 30.2065 20.1858 30.7038 19.7199C31.201 19.2539 31.5593 18.6741 31.743 18.0381C32.5358 13.895 32.7801 7.59491 31.7225 3.60589V3.60577Z" fill="#080809" fill-opacity="0.7"/>
<path d="M13.2207 15.3246L21.5177 10.8217L13.2208 6.31885L13.2207 15.3246Z" fill="white"/>
</g>
<defs>
<clipPath id="clip0_1_876">
<rect width="32.029" height="21.0973" fill="white" transform="translate(0.406006 0.315186)"/>
</clipPath>
</defs>
</svg>
