<svg width="167" height="65" viewBox="0 0 167 65" fill="none" xmlns="http://www.w3.org/2000/svg">
<rect width="167" height="64.4232" fill="#0A398A"/>
<path d="M83.1904 39.0245H78.0287V25.2249H83.1904V39.0245ZM78.5328 38.5204H82.6864V25.7289H78.5328V38.5204ZM90.3726 39.0245H85.3146V25.2249H95.8821C97.396 25.1023 98.9036 25.5273 100.13 26.4225C100.659 26.9058 101.068 27.5045 101.327 28.172C101.585 28.8395 101.686 29.5577 101.622 30.2707C101.697 31.5026 101.305 32.7177 100.524 33.6732C99.5992 34.7338 98.0607 35.2802 95.9517 35.2994C95.4204 35.3135 91.4392 35.2994 90.3756 35.2994L90.3726 39.0245ZM85.8157 38.5204H89.8685V34.7902H90.1215C90.1729 34.7902 95.3418 34.8064 95.9396 34.7902C97.9045 34.7731 99.3169 34.2862 100.143 33.3355C100.838 32.4709 101.183 31.3768 101.11 30.2697C101.172 29.6309 101.086 28.9864 100.859 28.3862C100.632 27.786 100.269 27.2462 99.7998 26.8087C98.6622 25.9922 97.2704 25.6089 95.8751 25.7279H85.8187L85.8157 38.5204ZM94.8115 32.1993H89.8342V28.4429H94.8447C95.1999 28.3938 95.5617 28.4353 95.8965 28.5634C96.2315 28.6915 96.5285 28.9022 96.7602 29.1758C96.9704 29.5256 97.0695 29.9309 97.0445 30.3382C97.0634 30.7164 96.9817 31.0928 96.8076 31.429C96.5686 31.7173 96.2594 31.9391 95.9098 32.0733C95.5602 32.2075 95.182 32.2495 94.8115 32.1952V32.1993ZM90.3383 31.6952H94.8115C95.6382 31.6952 96.1503 31.5228 96.3771 31.1679C96.502 30.91 96.5586 30.6243 96.5415 30.3382C96.5635 30.0379 96.4984 29.7375 96.3539 29.4732L96.3479 29.4642C96.108 29.1113 95.6311 28.947 94.8447 28.947H90.3383V31.6952ZM110.821 39.2281C106.294 39.2281 103.592 38.1041 102.563 35.7923C102.395 35.3458 102.28 34.8808 102.222 34.4071L102.178 34.1168H107.564L107.599 34.3285C107.64 34.5434 107.732 34.7458 107.865 34.9193C108.078 35.1764 108.788 35.6079 111.143 35.6079C113.973 35.6079 113.973 35.1108 113.973 34.8437C113.973 34.393 113.646 34.2388 111.337 33.9928L110.899 33.9515C110.03 33.8698 108.931 33.766 108.429 33.7226C104.194 33.3395 102.304 32.0239 102.304 29.4581C102.304 26.7633 105.521 25.0222 110.5 25.0222C114.562 25.0222 117.179 26.0929 118.277 28.207C118.537 28.6987 118.713 29.2313 118.794 29.7817L118.83 30.065H113.438L113.416 29.8372C113.395 29.6591 113.319 29.4921 113.198 29.3593C112.997 29.0891 112.359 28.6425 110.381 28.6425C107.953 28.6425 107.618 28.953 107.618 29.2877C107.618 29.7343 108.385 29.8926 110.844 30.1557C111.869 30.2394 113.518 30.4088 114.082 30.4773C117.632 30.8625 119.216 32.1458 119.216 34.64C119.217 36.7319 117.76 39.2281 110.821 39.2281ZM102.767 34.6209C102.817 34.9534 102.904 35.2792 103.026 35.5927C103.964 37.6988 106.514 38.7241 110.821 38.7241C114.422 38.7241 118.716 38.0184 118.716 34.64C118.716 32.4291 117.315 31.3343 114.029 30.9784C113.464 30.9098 111.826 30.7415 110.803 30.6568C108.182 30.3725 107.116 30.2213 107.116 29.2877C107.116 28.3219 108.264 28.1384 110.383 28.1384C112.058 28.1384 113.14 28.4409 113.598 29.0508C113.723 29.2011 113.818 29.3744 113.877 29.5609H118.246C118.158 29.171 118.019 28.7944 117.833 28.4409C116.825 26.5062 114.362 25.5263 110.502 25.5263C105.83 25.5263 102.81 27.0698 102.81 29.4581C102.81 31.7365 104.505 32.8616 108.475 33.2205C108.979 33.2639 110.077 33.3677 110.948 33.4504L111.39 33.4917C113.534 33.7176 114.48 33.8587 114.48 34.8437C114.48 35.9043 113.257 36.1119 111.145 36.1119C109.191 36.1119 107.957 35.8186 107.48 35.2409C107.333 35.0567 107.222 34.8463 107.153 34.6209H102.767ZM128.793 39.211C123.531 39.211 120.627 37.0828 120.627 33.2175V25.2249H125.721V33.2175C125.721 34.5432 126.907 35.3034 128.975 35.3034C130.951 35.3034 132.178 34.51 132.178 33.2347V25.2249H137.219V33.6409C137.224 37.1806 134.15 39.211 128.79 39.211H128.793ZM121.131 25.7289V33.2175C121.131 37.9942 125.928 38.7069 128.793 38.7069C131.755 38.7069 136.723 38.0486 136.723 33.6409V25.7289H132.69V33.2347C132.69 34.7973 131.234 35.8075 128.983 35.8075C126.63 35.8075 125.225 34.8396 125.225 33.2175V25.7289H121.131ZM158.579 39.0245H153.772V32.7941L151.046 39.0245H146.853L144.156 32.8062V39.0245H139.332V25.2249H145.677L148.974 32.8334L152.43 25.2249H158.585L158.579 39.0245ZM154.277 38.5204H158.075V25.7289H152.75L148.957 34.0755L145.342 25.7289H139.832V38.5204H143.648V30.3806L147.176 38.5234H150.705L154.27 30.3927L154.277 38.5204ZM12.9835 25.4769H8.39233V38.7725H21.079V35.2328H12.9835V25.4769ZM30.3459 25.1744C24.4855 25.1744 21.4036 27.9519 21.4036 32.0299C21.4036 36.6372 24.6388 38.9741 30.3459 38.9741C36.6288 38.9741 39.2711 36.2642 39.2711 32.0299C39.2711 27.7301 36.29 25.1724 30.3459 25.1724V25.1744ZM30.3288 28.6294C30.7277 28.6275 31.1265 28.6508 31.5225 28.699L26.3899 33.8315C26.1471 33.2821 26.0286 32.6858 26.0431 32.0854C26.0431 29.9995 27.0936 28.6274 30.3288 28.6274V28.6294ZM30.3459 35.5736C29.9615 35.5753 29.5774 35.5537 29.1956 35.5091L34.3372 30.3675C34.571 30.9077 34.6829 31.4929 34.6649 32.0813C34.6649 34.1107 33.697 35.5716 30.3459 35.5716V35.5736ZM48.3677 33.7589H53.093C53.0234 34.0869 52.8784 34.394 52.6695 34.6562C51.6899 35.4542 50.4397 35.8426 49.1803 35.7399C48.5464 35.8078 47.9054 35.7385 47.3006 35.5369C46.6958 35.3354 46.1413 35.0061 45.6749 34.5715C45.1972 33.8707 44.9702 33.0291 45.0307 32.1831C44.9534 31.2967 45.2002 30.4123 45.7254 29.694C46.3857 28.948 47.5037 28.6264 49.147 28.6264C50.1926 28.5398 51.2368 28.8083 52.111 29.3885C52.3865 29.6074 52.5925 29.9016 52.7038 30.2354H57.0863C57.0544 29.6854 56.9221 29.1459 56.6961 28.6435C55.6466 26.5092 53.2069 25.239 49.0583 25.239C45.4501 25.239 43.0285 26.3399 41.6907 28.0003C40.8072 29.1994 40.3536 30.6613 40.4033 32.1499C40.3461 33.6722 40.788 35.1714 41.6615 36.4194C42.9832 38.1333 45.3372 38.9761 48.1661 38.9761C50.0468 39.1073 51.9147 38.5805 53.4498 37.486L53.5688 38.7725H57.2093V30.8967H48.3677V33.7589ZM67.5419 25.1714C61.6824 25.1714 58.5995 27.9489 58.5995 32.0269C58.5995 36.6342 61.8337 38.9711 67.5419 38.9711C73.8257 38.9711 76.4681 36.2611 76.4681 32.0269C76.4681 27.7301 73.4869 25.1724 67.5419 25.1724V25.1714ZM67.5257 28.6264C67.9142 28.6252 68.3023 28.6474 68.6881 28.6929L63.5758 33.8083C63.3405 33.265 63.2259 32.6772 63.24 32.0854C63.236 29.9995 64.2905 28.6274 67.5257 28.6274V28.6264ZM67.5419 35.5706C67.1473 35.5723 66.753 35.5493 66.3613 35.502L71.52 30.3423C71.7627 30.8897 71.8788 31.4848 71.8598 32.0833C71.8618 34.1107 70.898 35.5716 67.5419 35.5716V35.5706Z" fill="white"/>
</svg>
