<svg width="71" height="32" viewBox="0 0 71 32" fill="none" xmlns="http://www.w3.org/2000/svg">
<path d="M2.58628 26.7897H8.62092V10.8331C8.62092 10.0516 8.64247 9.23383 8.68558 8.37992L5.12945 11.3541C4.89956 11.5423 4.66966 11.6798 4.43977 11.7666C4.20988 11.839 3.98718 11.8752 3.77165 11.8752C3.39808 11.8752 3.06043 11.7956 2.75869 11.6364C2.47133 11.4627 2.25581 11.2818 2.11213 11.0936L0 8.27137L9.78474 0H15.3021V26.7897H20.4747V31.6526H2.58628V26.7897Z" fill="#8A7B60"/>
<path d="M36.9871 11.6147C38.1222 11.6147 39.2429 11.8028 40.3493 12.1791C41.4556 12.5554 42.447 13.1343 43.3235 13.9159C44.1999 14.6974 44.904 15.6888 45.4356 16.8901C45.9816 18.0769 46.2546 19.4808 46.2546 21.1018C46.2546 22.578 45.9816 23.9819 45.4356 25.3134C44.8896 26.6305 44.1137 27.7883 43.108 28.787C42.1166 29.7711 40.9168 30.5527 39.5087 31.1316C38.1006 31.7105 36.5417 32 34.8319 32C33.079 32 31.5056 31.725 30.1119 31.175C28.7182 30.6106 27.5328 29.829 26.5558 28.8304C25.5931 27.8318 24.8532 26.6377 24.3359 25.2483C23.833 23.8589 23.5816 22.332 23.5816 20.6676C23.5816 19.09 23.8833 17.5197 24.4868 15.9566C25.0902 14.3935 25.9811 12.8014 27.1593 11.1805L34.2284 1.56309C34.5445 1.1289 35.0187 0.767074 35.6509 0.477611C36.2831 0.173677 37.0015 0.0217106 37.8061 0.0217106H43.7545L34.4439 11.2239C34.3003 11.3831 34.1566 11.5495 34.0129 11.7232C33.8836 11.8824 33.7543 12.0416 33.625 12.2008C34.1278 12.0127 34.6523 11.8679 35.1983 11.7666C35.7586 11.6653 36.3549 11.6147 36.9871 11.6147ZM30.0042 21.5794C30.0042 22.3609 30.0976 23.0629 30.2843 23.6852C30.4711 24.3076 30.7585 24.8431 31.1464 25.2917C31.5344 25.7404 32.0229 26.0877 32.612 26.3338C33.2011 26.5654 33.8979 26.6811 34.7026 26.6811C35.3922 26.6811 36.0316 26.5509 36.6207 26.2904C37.2242 26.0299 37.7414 25.6753 38.1725 25.2266C38.6035 24.7635 38.9412 24.228 39.1854 23.6201C39.4441 22.9977 39.5734 22.3247 39.5734 21.6011C39.5734 20.7906 39.4513 20.0669 39.207 19.4301C38.9771 18.7933 38.6466 18.2578 38.2156 17.8236C37.7845 17.3894 37.2601 17.0565 36.6423 16.825C36.0388 16.5934 35.3635 16.4776 34.6164 16.4776C33.9411 16.4776 33.3232 16.6006 32.7629 16.8467C32.2025 17.0782 31.714 17.4184 31.2973 17.867C30.895 18.3157 30.5789 18.8512 30.349 19.4735C30.1191 20.0959 30.0042 20.7978 30.0042 21.5794Z" fill="#8A7B60"/>
<path d="M71 0.0217106V2.84396C71 3.63998 70.9138 4.28403 70.7414 4.77612C70.569 5.2682 70.4037 5.68792 70.2457 6.03528L59.2756 29.4383C58.9882 30.0606 58.5643 30.5889 58.004 31.0231C57.4436 31.4428 56.7036 31.6526 55.7841 31.6526H50.9133L62.1205 9.0095C62.4222 8.38715 62.7455 7.82994 63.0903 7.33786C63.4495 6.84577 63.8375 6.3754 64.2541 5.92673H50.4391C50.238 5.92673 50.044 5.89055 49.8572 5.81818C49.6848 5.73134 49.5267 5.62279 49.383 5.49254C49.2537 5.34781 49.146 5.1886 49.0598 5.01492C48.9736 4.82678 48.9305 4.63863 48.9305 4.45048V0.0217106H71Z" fill="#8A7B60"/>
</svg>
