<svg width="90" height="6" viewBox="0 0 90 6" fill="none" xmlns="http://www.w3.org/2000/svg">
<path d="M5.60517 5.92027H4.298V1.12027H2.78355L2.71586 1.65449C2.54101 3.01262 2.3859 3.96545 2.25053 4.51296C2.11798 5.05781 1.92479 5.44186 1.67098 5.66512C1.41998 5.88837 1.07168 6 0.626087 6C0.389189 6 0.180494 5.97076 0 5.91229V4.89967C0.163572 4.95282 0.317274 4.9794 0.461105 4.9794C0.610576 4.9794 0.729025 4.91561 0.816451 4.78804C0.903878 4.65781 0.985664 4.4186 1.06181 4.07043C1.14078 3.7196 1.24371 3.14684 1.37062 2.35216C1.50035 1.55482 1.61034 0.801329 1.70059 0.0916944H5.60517V5.92027Z" fill="#0A3B93"/>
<path d="M10.7281 5.92027H7.16616V0.0916944H10.7281V1.10432H8.47756V2.38405H10.5716V3.39668H8.47756V4.89967H10.7281V5.92027Z" fill="#0A3B93"/>
<path d="M14.4085 5.92027H13.0971V1.12027H11.4176V0.0916944H16.0879V1.12027H14.4085V5.92027Z" fill="#0A3B93"/>
<path d="M23.7828 5.92027H22.4757V3.40465H20.0263V5.92027H18.7149V0.0916944H20.0263V2.37608H22.4757V0.0916944H23.7828V5.92027Z" fill="#0A3B93"/>
<path d="M29.1342 5.92027L28.6858 4.53289H26.431L25.9826 5.92027H24.5697L26.7525 0.0677741H28.3558L30.5471 5.92027H29.1342ZM28.3727 3.49635C27.9582 2.2392 27.7241 1.52824 27.6705 1.36346C27.6197 1.19867 27.5831 1.06844 27.5605 0.972758C27.4674 1.31296 27.2009 2.15415 26.761 3.49635H28.3727Z" fill="#0A3B93"/>
<path d="M35.8815 4.89169H37.8021V0.0916944H39.1093V5.92027H31.3297V0.0916944H32.6411V4.89169H34.5617V0.0916944H35.8815V4.89169Z" fill="#0A3B93"/>
<path d="M44.2322 5.92027H40.6703V0.0916944H44.2322V1.10432H41.9817V2.38405H44.0757V3.39668H41.9817V4.89967H44.2322V5.92027Z" fill="#0A3B93"/>
<path d="M49.4355 0.0916944V1.11229H46.8381V5.92027H45.5267V0.0916944H49.4355Z" fill="#0A3B93"/>
<path d="M55.9206 2.99801C55.9206 3.96279 55.6667 4.70432 55.1591 5.22259C54.6515 5.74086 53.9239 6 52.9763 6C52.0287 6 51.3011 5.74086 50.7934 5.22259C50.2858 4.70432 50.032 3.96013 50.032 2.99003C50.032 2.01993 50.2858 1.27973 50.7934 0.769435C51.3039 0.256478 52.0343 0 52.9847 0C53.9351 0 54.6613 0.257807 55.1633 0.773422C55.6682 1.28904 55.9206 2.03056 55.9206 2.99801ZM51.4068 2.99801C51.4068 3.64917 51.538 4.13953 51.8002 4.4691C52.0625 4.79867 52.4545 4.96346 52.9763 4.96346C54.0226 4.96346 54.5457 4.30831 54.5457 2.99801C54.5457 1.68505 54.0254 1.02857 52.9847 1.02857C52.463 1.02857 52.0696 1.19468 51.8045 1.52691C51.5394 1.85648 51.4068 2.34684 51.4068 2.99801Z" fill="#0A3B93"/>
<path d="M64.4912 2.99801C64.4912 3.96279 64.2374 4.70432 63.7297 5.22259C63.2221 5.74086 62.4945 6 61.5469 6C60.5993 6 59.8717 5.74086 59.364 5.22259C58.8564 4.70432 58.6026 3.96013 58.6026 2.99003C58.6026 2.01993 58.8564 1.27973 59.364 0.769435C59.8745 0.256478 60.6049 0 61.5553 0C62.5058 0 63.232 0.257807 63.734 0.773422C64.2388 1.28904 64.4912 2.03056 64.4912 2.99801ZM59.9774 2.99801C59.9774 3.64917 60.1086 4.13953 60.3709 4.4691C60.6331 4.79867 61.0251 4.96346 61.5469 4.96346C62.5932 4.96346 63.1163 4.30831 63.1163 2.99801C63.1163 1.68505 62.596 1.02857 61.5553 1.02857C61.0336 1.02857 60.6402 1.19468 60.3751 1.52691C60.11 1.85648 59.9774 2.34684 59.9774 2.99801Z" fill="#0A3B93"/>
<path d="M70.6674 5.92027H69.3603V1.12027H67.0844V5.92027H65.773V0.0916944H70.6674V5.92027Z" fill="#0A3B93"/>
<path d="M76.4588 4.09834C76.4588 4.70432 76.2444 5.16013 75.8157 5.46578C75.3899 5.76877 74.7582 5.92027 73.9206 5.92027H72.2284V0.0916944H73.5398V2.32824H73.9629C74.7553 2.32824 75.3687 2.48372 75.8031 2.79468C76.2402 3.10299 76.4588 3.53754 76.4588 4.09834ZM73.5398 4.90764H73.8825C74.314 4.90764 74.6298 4.8412 74.8301 4.70831C75.0303 4.57276 75.1304 4.36944 75.1304 4.09834C75.1304 3.82724 75.0331 3.63322 74.8385 3.51628C74.6468 3.39934 74.3083 3.34086 73.8233 3.34086H73.5398V4.90764ZM78.5189 5.92027H77.2117V0.0916944H78.5189V5.92027Z" fill="#0A3B93"/>
<path d="M82.4658 5.92027H81.1544V1.12027H79.475V0.0916944H84.1452V1.12027H82.4658V5.92027Z" fill="#0A3B93"/>
<path d="M88.5871 5.92027L88.1387 4.53289H85.8839L85.4355 5.92027H84.0226L86.2054 0.0677741H87.8087L90 5.92027H88.5871ZM87.8256 3.49635C87.411 2.2392 87.177 1.52824 87.1234 1.36346C87.0726 1.19867 87.036 1.06844 87.0134 0.972758C86.9203 1.31296 86.6538 2.15415 86.2139 3.49635H87.8256Z" fill="#0A3B93"/>
</svg>
