<svg width="22" height="28" viewBox="0 0 22 28" fill="none" xmlns="http://www.w3.org/2000/svg">
<path d="M0 14.402V13.598L8.68146 0L10.7036 0.978776C11.0291 1.14191 11.2731 1.35164 11.4358 1.60799C11.5985 1.86434 11.6799 2.14399 11.6799 2.44694C11.6799 2.84311 11.5637 3.22763 11.3312 3.6005L5.78764 12.7241C5.46223 13.2834 5.13682 13.7145 4.81141 14.0175C5.16006 14.3437 5.48547 14.7632 5.78764 15.2759L11.3312 24.3995C11.4474 24.5859 11.5288 24.784 11.5753 24.9938C11.645 25.2035 11.6799 25.4016 11.6799 25.588C11.6799 26.2405 11.3545 26.7183 10.7036 27.0212L8.68146 28L0 14.402ZM10.3201 14.402V13.598L19.0016 0L21.0238 0.978776C21.3492 1.14191 21.5932 1.35164 21.7559 1.60799C21.9186 1.86434 22 2.14399 22 2.44694C22 2.84311 21.8838 3.22763 21.6513 3.6005L16.1078 12.7241C15.7824 13.2834 15.4569 13.7145 15.1315 14.0175C15.4802 14.3437 15.8056 14.7632 16.1078 15.2759L21.6513 24.3995C21.7676 24.5859 21.8489 24.784 21.8954 24.9938C21.9651 25.2035 22 25.4016 22 25.588C22 26.2405 21.6746 26.7183 21.0238 27.0212L19.0016 28L10.3201 14.402Z" fill="white"/>
</svg>
